<?xml version="1.0" encoding="utf-8"?>
<!DOCTYPE svg PUBLIC "-//W3C//DTD SVG 1.1//EN" "http://www.w3.org/Graphics/SVG/1.1/DTD/svg11.dtd">
<svg version="1.1" id="Layer_1" xmlns="http://www.w3.org/2000/svg" xmlns:xlink="http://www.w3.org/1999/xlink" x="0px" y="0px"
	 viewBox="238.202 438.5052 1438.8525 734.7734" enable-background="new 238.202 438.5052 1438.8525 734.7734" xml:space="preserve"
	>
<g id="_x23_a40101ff">
	<path d="M754.88,451.79c13.98-1.53,28.12-1.4,42.13-0.23c-29.74,0.79-59.4,3.55-89,6.46c-5.68,0.44-11.3,1.8-17.02,1.61
		C712.19,456.29,733.51,453.77,754.88,451.79z"/>
	<path d="M802.35,451.5c38.83,0.04,77.69,3.95,116.03,10.21c3.54,0.65,7.13,1.1,10.62,2.07c-33.33-3.2-66.56-7.61-99.97-9.98
		C820.13,453.05,811.23,452.38,802.35,451.5z"/>
	<path d="M769.68,463.71c21.3-2.99,42.88-2.18,64.33-2.32c22.32,0.08,44.65,0.59,66.95,1.61c16.48,1.18,33.5,2.3,48.72,9.35
		c9.26,4.31,17.58,10.32,26.07,15.94c13.49,9.08,26.52,18.82,39.61,28.46c6.17,0.36,12.37-1.06,18.55-1.45
		c26.37-2.55,52.7899-4.6,79.25-5.99c27.59-1.43,55.23-0.25,82.84-0.49c10.25-0.03,20.49-0.18,30.72,0.44l0.01,0.53
		c-24.2-0.31-48.34,1.87-72.52,2.67c-26.0699,0.67-52.13,2.15-78.13,4.3C1015,521.26,954,526.9,893.02,532.63
		c-8.5,0.51-16.75,2.78-25.15,3.99c-39.03,7.39-78.1,14.49-117.13,21.87c-12.21,1.94-24.13,5.29-36.16,8.05
		c-45.29,11.3-90.43,23.15-135.61,34.84c-7.21-22.8-12.84-46.15-16.27-69.84c-0.67-6.29-1.44-13.2,1.97-18.89
		c2.33-5.01,7.8-7.08,12.4-9.47c17.86-8.03,36.68-13.84,55.76-18.17C678.44,477.88,723.85,469.36,769.68,463.71 M781,465.61
		c-45.09,6.18-90.01,13.49-134.93,20.78c-18.87,3.7-37.16,9.92-55.2,16.47c-6.51,2.89-13.72,5-19,9.98
		c-3.39,5-2.95,11.46-2.56,17.21c2.8,21.9,8.86,43.18,14.66,64.43c38.72-10.7,77.38-21.71,116.44-31.18
		c56.39-14.44,114.33-21.28,171.8701-29.34c-2.28-3.98-6.17-6.66-9.3101-9.91c-19.24-18.65-41.17-34.16-61.87-51.07
		c5.85,3.69,11.25,8.05,16.89,12.06c8.66,6.63,17.66,12.86,25.75,20.21c10.48,9.45,21.18,18.68,31.27,28.55
		c18.27-2.64,36.7-4.08,54.97-6.77c27.43-3.32,54.84-6.86,82.34-9.45c-1.02-0.96-2.09-1.84-3.19-2.66
		c-12.01-8.43-24.11-16.72-36.54-24.51c-8.94-5.35-17.03-12.13-26.57-16.43c-13.61-5.65-28.54-6.14-43.04-7.13
		c-26.64-1.31-53.3-2.2-79.97-2.69C809,464.08,794.89,463.31,781,465.61z"/>
	<path d="M645.48,465.74c6.89-0.59,13.65-2.51,20.58-2.47c-24.08,4.01-48.2,7.83-72.17,12.47c-8.94,1.86-17.91,3.57-26.91,5.12
		c3.67-1.56,7.67-2.06,11.52-2.99C600.65,472.91,623,468.89,645.48,465.74z"/>
	<path d="M738.4,497.48c11.0699-4.98,21.97-10.47,33.48-14.38c-16.93,8-33.91,16.02-49.86,25.88c-7.74,4.72-14.56,10.75-21.33,16.73
		c-9.65,8.66-19.11,17.52-28.39,26.58c-2.44,2.34-4.66,4.9901-7.56,6.79c6.05-7.94,13.31-14.91,20-22.32
		c6.97-7.37,14.19-14.51,21.92-21.08C716.01,507.68,727.47,502.87,738.4,497.48z"/>
	<path d="M513.82,497.82c11.07-6.62,23.65-10.2,36.2-12.75c-3.05,1.42-6.3,2.32-9.45,3.46c-19.18,6.26-36.5,16.89-53.54,27.45
		C495.26,508.99,504.58,503.38,513.82,497.82z"/>
	<path d="M733.46,509.62c3.69-1.82,7.49-3.47,11.47-4.58c-7.66,3.83-15.46,7.49-22.6,12.25c-9.64,6.88-17.44,15.91-26.44,23.52
		c5.95-7.3,12.62-14.02,19.53-20.41C720.6,515.55,727.18,512.73,733.46,509.62z"/>
	<path d="M1250.92,509.43c14.85-1.07,29.75-0.32,44.6,0.25c14.58,0.56,29.1699,1.73,43.5599,4.16
		c13.37,2.49,25.0701,10.18,35.3301,18.78c14.5499,12.7,26.9399,27.94,36,45.01c5.22,9.69,10.4199,19.51,13.7799,30.03
		c1.2401,4.3,3,9.28,0.3101,13.4c-1.08-5.32-2.86-10.8-7.15-14.42c-7.03-6.32-16.84-8.45-26.0699-8.06
		c-2.5901-18.88-11.9-36.3-24.3-50.56c-8.63-9.5-18.0599-18.8-29.98-24.03c-22.52-10.27-47.58-12.53-71.98-14.09
		C1260.3199,509.46,1255.58,510.15,1250.92,509.43z"/>
	<path d="M512.58,515.63c7.09-1.57,17.19,0.34,19.61,8.2c8,24.63,15,49.56,22.45,74.36c1.11,4.14,3.8,7.95,3.9,12.3
		c-1.43,1.65-4.31,1.57-5.18,3.89c-10.49,17.83-18.92,37.76-19.14,58.76c-0.6299,28.97,0.52,57.94,1.16,86.89
		c0.21,1.8199-1.08,3.25-2.41,4.28c-0.62-25.43-0.53-50.88-0.81-76.31c0.13-10.39-0.93-20.85,0.82-31.16
		c3-15.5,9.99-29.8,17.37-43.61c-11.47,2.18-23.03,3.87-34.38,6.66c-41.45,9.85-82.76,20.29-123.99,31
		c2.79-2.84,5.15-6.79,9.35-7.57c40.52-9.81,80.96-19.94,121.5-29.69c-0.06-0.32-0.18-0.97-0.24-1.29
		c-3.9301-2.08-8.04-4.27-12.57-4.47c-14.29-1-28.71,3.67-42.84-0.06c-3.15-0.84-7.7-1.98-8.17-5.81c-0.57-2.45,2.22-3.45,4.05-4.04
		c6.5-1.73,13.36-1.1,19.98-0.58c16.9,1.43,32.57,8.58,47.56,16.05c1.76,1.06,3.82,0.26,5.6801-0.01c5.95-1.28,11.99-2.09,17.9-3.55
		c-0.32-1.41-0.66-2.8-0.99-4.18c-6.31,0.82-12.61,2.29-18.99,2.14c-10.25-5.92-20-12.68-29.91-19.12
		c-7.98-3.41-16.93-1.77-25.34-1.67c-8.9,0.14-16.41,5.33-24.26,8.81c0.96-3.81,4.84-5.62,8.15-7.0099
		c8.67-3.16,17.96-4.39,27.16-4.4301c6.34,0.13,13.02,0.69,18.53,4.13c9,5.53,17.55,11.76,26.23,17.77
		c1.31,1.26,3.11,0.56,4.68,0.33c4.23-0.86,8.49-1.62,12.7-2.62c-1.68-8.55-4.37-16.87-6.75-25.25
		c-3.03-10.86-6.32-21.65-9.79-32.38c-2.37-6.53-4.23-13.3-7.56-19.42c-1.7599-3.33-5.21-5.74-8.99-6
		c-6.87-0.5099-13.38,2.1801-19.86,4.04c-14.1,3.82-25.27,13.8-36,23.21c-11.51,10.46-22.27,21.73-32.65,33.3101
		c-5.83,7.33-10.81,15.3-15.83,23.2c-0.92,1.1-1.41,2.96-3.09,3.09c4.28-8.26,9.27-16.13,14.03-24.1
		c7.58-13.27,18.94-23.75,29.84-34.24c8.87-8.2,18.03-16.18,28.14-22.83C492.4,520.98,502.61,518.31,512.58,515.63z"/>
	<path d="M468.65,530.37c1.35-1.96,3.27-3.43,5.34-4.54C472.57,527.7,470.87,529.46,468.65,530.37z"/>
	<path d="M465.97,531.96c0.61-0.36,1.82-1.06,2.43-1.42c-0.92,1.35-2.04,2.56-3.21,3.69c-23.25,21.14-41.24,47.46-55.83,75.13
		c0.81-0.43,2.45-1.28,3.26-1.71c-1.01,2.04-2.13,4.0699-3.71,5.73c0.36-1.29,0.74-2.58,1.14-3.85c-0.56,0.0699-1.68,0.2-2.24,0.27
		C422.51,580.83,440.79,552.91,465.97,531.96z"/>
	<path d="M1488.9301,539.19c24-1.4,48.1399-2.07,72.13-0.03c12.72,1.47,25.71,3.04,37.5199,8.31c4.8401,2.08,9.13,5.32,12.65,9.23
		c-0.59,0.14-1.78,0.43-2.37,0.57c2.13,1.61,4.24,3.27,6.35,4.95c0-0.6299,0.01-1.8799,0.01-2.5099
		c5.25,4.58,9.35,10.57,11.67,17.15c-2.03-3.14-3.92-6.41-6.62-9.03c0.4,6.04,5.03,10.51,6.63,16.18
		c-3.47-4.18-6.35-9.6-11.97-11.18c-4.12-1.34-8.29,1.2-10.7101,4.42c-4.7899,6.38-6.47,14.41-7.6799,22.14
		c2.51-3.64,4.74-8.49,9.64-9.21c4.98-0.24,8.23,4.47,10.0599,8.52c4.25,10.11,4.4,21.91,0.65,32.19
		c-1.74,4.35-4.61,9.84-9.9501,9.97c-3.48,0.35-5.7699-2.52-7.8999-4.77c2.5699,8.33,5.3199,16.96,11.3199,23.53
		c2.64,2.94,6.49,5.42,10.61,4.7c1.85-0.5,3.55-1.42,5.35-2.1c-1.73,2.53-3.98,4.6201-6.13,6.78c3.0601-0.73,5.6801-2.46,8.26-4.19
		c-1.7899,3.79-4.74,7.12-8.5,9.02c-4.1799,1.99-9.2,0.7-12.6799-2.09c-6.78-5.21-10.34-13.23-13.8301-20.76
		c-0.1,3.86,1.05,8.07-0.4299,11.71c-6.41,5.18-14.7,6.99-22.13,10.18c-0.71,2.26-0.77,4.66-1.13,7c-0.52-0.13-1.5699-0.4-2.09-0.54
		c-0.79-1.58-0.7101-3.4-1.4501-4.98c-8.7,2.84-17.47,5.45-26.22,8.06c12.9401-0.02,25.9-1.23,38.8201,0.03
		c6.4399,1.13,12.2999,4.42,17.6599,8.05c8.5701,5.96,16.17,13.45,21.8,22.28c6.41,10.46,8.9299,22.62,12.22,34.28
		c0.61-30.46,2.76-60.87,3.34-91.33c-1.25,1.77-2.1699,3.75-3.38,5.55c4.8301-12.55,6.64-26.15,5.63-39.54
		c-1.9099,2.58-1.0399,6.23-1.48,9.27c-0.0599,9.63-0.01,20.39-6.53,28.19c1.03-3.57,2.6101-6.96,3.4501-10.58
		c1.54-6.41,1.87-13.02,2.54-19.56c0.75-6.89-0.6801-13.73-1.3301-20.57c-0.66-6.3-2.26-12.43-3.5599-18.6
		c3.85,8.26,3.36,17.79,6.51,26.29c0.23-10.93-2.9701-21.56-5.4801-32.09c4.92,13.75,8.2201,28.23,7.9801,42.92
		c0.2599,8.05-1.8,15.95-1.5,24c-0.0801,13.34-1.04,26.65-0.7301,40c0.3601,20.5,0.63,41.05,2.1801,61.48
		c-2.3101-0.77-4.53-1.73-6.85-2.4c-0.63,2.86-3.01,4.86-5.5701,5.98c-1.59-10.14-3.96-20.15-6.63-30.06
		c-2.84-10.41-9.8199-19.42-18.87-25.21c-7.14-4.5-15.0299-8.06-23.36-9.62c-12.25-1.4-24.6-0.09-36.83,0.86
		c-19.74,1.53-39.28,4.73-58.89,7.24c-3.2-11.25-7.34-22.26-12.74-32.64c-3.49-6.5-7.6801-12.98-14.05-16.99
		c-8.1899-5.37-18.1899-6.53-27.74-6.9c-2.39-8.17-5-16.48-9.78-23.61c-2.47-3.72-7.08-6.92-11.6799-5.32
		c-5.4301,1.99-8.63,7.31-11.08,12.23c-5.4801,12.36-4.4401,26.18-4.1801,39.34c-9.9301,1.05-19.45,4.61-28.3,9.12
		c-8.9099,4.2-15.95,11.51-21.73,19.33c-4.0499,5.16-6,11.56-7.1,17.93c-2.01,9.96-1.35,20.67-5.9399,29.98
		c-3.4401,7.18-10.8601,10.97-17.6901,14.3c-21.52,9.88-44.46,16.06-67.03,23.01c-19.1699,5.43-37.7899,12.55-56.37,19.7
		c-18.0599,7.23-36.08,14.67-53.35,23.65c-6.25,3.54-12.9399,6.77-17.87,12.12c-1.6801,1.5-1.8199,4.5,0.48,5.52
		c6.36,3.56,14.0801,2.66,21.1,2.44c12.1001-0.59,23.8501-3.85,35.8501-5.2c-18.88,5.15-37.17,13.1-53.16,24.47
		c-12.27,9.5-20.29,23.26-27.01,37c-6.0701,12.84-10.79,26.3-14.6,39.98c-12.0801-2.94-24.1-6.14-36.2001-9.02
		c-3.34,2.54-7.46,3.53-11.33,4.96c-18.9,6.61-37.8,13.22-56.52,20.34c-15.6,6.25-30.24,14.64-44.3,23.79
		c-3.41,2.85-6.02,6.57-8.51,10.24c1.4,1.51,3.3,2.07,5.33,1.73c20.1-1.86,40-5.34,59.95-8.3
		c26.09-4.1299,52.1299-8.53,78.19-12.8199c16.3199-2.98,32.75-5.35,48.99-8.79c34.5699-6.76,68.75-15.33,102.85-24.11
		c10.09-2.33,19.97-5.71,30.3101-6.88c24.5699-3.16,49.38-3.75,74.13-3.81c1.8199,0.02,3.63-0.35,5.34-1.04
		c-1.15-3.27-3.9501-5.37-6.36-7.64c5.7899-0.25,11.58-0.67,17.3099-1.63c-0.89-4.1-4.64-6.51-7.2799-9.44
		c7.2999-0.1,14.61-0.56,21.9199-0.67c1.17,3.32,1.65,7.41,4.8201,9.56c0.8999,0.58,2.73,1.27,3-0.4c0.09-2.86-1.3-5.48-2.0901-8.15
		c4.7001,0.46,10.15,2.21,14.41-0.61c-0.65-3.19-2.8-5.67-4.24-8.49c7.08-1.13,15.3-2.01,21.45,2.46
		c-0.34,2.04-0.7899,4.06-0.7999,6.15c0.58,0.15,1.73,0.46,2.2999,0.61c0.51-4.07-1.1799-7.87-2.8199-11.47
		c2.11,1.16,4.26,3.01,6.86,2.45c2.8-0.62,5.9-2.16,6.85-5.07c0.53-2.66-1.72-4.64-2.89-6.74c9.03,1.15,18.0701,2.43,27.14,3.33
		c3.3301-1.31,7.35-2.63,9.2001-5.93c-1.12-1.03-2.3-1.97-3.3201-3.06c8.03-3.3701,18.9401-5.2,25.35,2.22
		c1.9-0.77,4.01-1.38,5.4801-2.91c0.6-1.26-0.2001-2.47-0.75-3.54c-1.4801-2.63-3.01-5.24-4.16-8.02
		c6.34-0.39,12.75-0.57,19.0599,0.31c4.49,0.75,7.51,4.44,10.0601,7.9c1.21-2.22,3.15-4.41,3.01-7.08
		c-0.9401-3.91-4.1901-6.61-6.63-9.59c5.97-2.5,12.86-1.52,18.89,0.33c3.9199,1.08,6,4.71,8.73,7.4c0.83-4.7-0.35-9.42,0.0699-14.12
		c5.14-2.13,10.99-3.71,16.39-1.46c3.13,1.07,4.8301,4.07,6.77,6.53c0.39-5.16,0.52-10.95-3.63-14.74
		c6.9401-1.4,14.98-1.32,20.91,3.09c1.49,1.02,3.03,1.97,4.62,2.89c-0.0701-5.02-2.62-9.42-5.3101-13.46
		c7.65-5.23,16.27,0.7,23.5,3.72c1.7101-4.5,0.7201-9.31-1.26-13.53c6.24,0.29,13.25-0.64,18.7001,3.08
		c3.49,2.54,2.27,7.22,1.63,10.81c3.1-1.93,5.95-4.66,9.74-5.12c-0.73,5.54-4.97,9.61-8.87,13.21
		c-9.42,8.22-20.1801,14.71-30.9501,20.98c-6.7,3.66-13.1599,7.85-20.21,10.82c3.45-3.27,7.6801-5.57,11.05-8.94
		c-7.5901,1.93-12.5701,8.92-20.17,10.8c-3.29,0.96-6.98,0.16-9.98,2.01c-6.11,3.14-11.73,7.2-18.05,9.93
		c-1.98,0.96-4.1899,0.59-6.27,0.92c-4.37,2.51-7.5099,7.11-12.61,8.3101c-3.39,1.08-6.8199-0.17-9.9199-1.46
		c-8.13,8.08-19.4,12.97-30.88,13.14c-4.55,2.77-9,5.97-14.2001,7.37c-4.49,1.04-8.84-0.81-12.76-2.79
		c-4.6399,3.76-9.59,7.1-14.6399,10.27c-3.14,1.94-6.8501,3.37-10.5801,2.84c-2.1699-0.38-3.9199-1.76-5.84-2.6801
		c-5.99,4.2401-12.22,8.13-18.59,11.76c-3.05,1.7-6.67,3.15-10.17,2.05c-2.42-0.71-3.96-2.8-5.62-4.52
		c-2.9301,2.98-4.72,7.25-8.72,9.01c-5.1901,2.41-10.0701,6.55-16.0901,6.24c-4.1699-0.2-7.3899-3.09-10.1399-5.91
		c-4.88,5.54-11.16,9.6801-17.9801,12.41c-6.2699,1.34-12.6499-0.6-18.76-1.9c-11.2999-2.98-22.58-6.3-34.21-7.72
		c-12.4399-1.52-24.74,1.74-36.98,3.47c-56.78,10.52-113.14,23.19-169.4401,36.01c-19.2999,5.35-39.34,7.22-59.2399,8.82
		c-15.45,0.87-31.01,1.62-46.41-0.32c-5.4-0.86-11.18-1.83-15.53-5.38c-2.47-1.97-2.47-5.65-0.47-7.93
		c5.72-7.46,14.19-12.06,22.05-16.91c30.5099-17.48,63.1-30.9301,95.52-44.39c1.42-5.7,1.29-11.82,2.49-17.63
		c3.36-20.27,8.6-40.77,19.6901-58.3c9.5599-15.38,26.11-24.1,41.4199-32.71c38.7201-20.44,79.8501-35.75,120.8-51.02
		c20.8199-7.59,41.71-15,62.51-22.63c4.89-2.05,10.16-3.25,14.7-6.06c-63.4199,16.84-126.8099,33.9901-191,47.69
		c-11.61,2.19-23.22,4.63-35.01,5.53c-3.24,0.22-6.8099,0.18-9.3999-2.05c-9.3401-7.47-16.2101-17.47-22.4801-27.53
		c-0.96,17.67-6.33,35.22-16.45,49.82c-9.53,13.96-23.33,25.24-39.46,30.59c-19.3,6.72-41.47,4.11-58.85-6.56
		c-17.98-10.77-30.96-28.81-37.29-48.63c-1.16-4.61-2.7401-9.27-2.69-14.04c3.7,20.93,14.81,40.85,31.78,53.88
		c14.25,11.16,32.93,16.68,50.94,14.29c14.5-1.65,28.17-8.41,38.93-18.16c15.66-14.1,25.42-34.2,28.02-55.01
		c2.87-19.55-0.9401-39.76-9.65-57.4c0.83,0.15,2.49,0.44,3.3201,0.59c-2.4701-5.48-6.41-10.08-9.73-15.02
		c4.73,4.34,8.64,9.49,12.69,14.45c-0.67,0.72-1.3101,1.46-1.9401,2.21c6.0801,12.12,9.75,25.52,10.17,39.1
		c-0.27,2.7401-1.03,5.45-0.6801,8.2401c1.54-1.39,0.6801-3.72,1.03-5.51c1.89,0.98,2.4501,3.11,3.25,4.92
		c3.89,9.6,11.17,18,20.64,22.39c2.71,1.3,5.8101,0.97,8.73,0.83c12.15-1.0601,23.9601-4.2401,35.8201-6.9301
		c41.45-10.28,82.35-22.61,123.23-34.94c26.73-8.2599,53.47-16.5099,80.09-25.14c2.52-10.71,4.2001-21.78,8.98-31.8
		c5.9601-12.92,17.0601-22.6299,28.8301-30.2c6.3999-4.22,13.36-7.5,20.3999-10.53c2.54-0.95,3.65-3.67,4.13-6.14
		c1.2201-6.41,0.79-13.21,3.5901-19.25c3.1599-6.68,8.48-12.89,15.74-15.14c6.25-1.52,13.22,0.32,17.9,4.7599
		c6.3899,6.02,10.38,13.97,14.59,21.55c10.89,1.91,21.97,4.46,31.51,10.29c5.22,3.15,8.35,8.55,11.33,13.68
		c6.22,10.9,11.4501,22.32,16.4301,33.83c12.14-0.55,24.3099-0.88,36.4299-1.89c14.79-3.13,29.38-7.16,43.91-11.35
		c-2.7-11.09-8.17-21.31-14.67-30.61c-4.5599-6.36-9.49-12.7-16.26-16.8199c-15.0299-9.35-32.6-13.3-49.8099-16.4
		c-11.76-2.16-23.72-2.74-35.59-4c-0.6901-1.31-1.36-2.62-1.92-3.95c23.0601,0.46,46.23,4.1,68.03,11.77
		c17.76,6.27,34.39,16.96,45.45,32.44c5.42,7.6,8.91,16.58,9.54,25.93c6.04-1.66,11.98-3.89,17.47-6.95
		c4.7-3.1,3.3101-9.64,3.8-14.44c0.49,0.28,1.48,0.84,1.97,1.12c-0.1-0.88-0.3-2.65-0.4-3.54l1.22,0.58
		c3.61,8.45,7.5801,18.11,16.3301,22.39c2.45,0.73,6.3099,1.77,8.13-0.5099c-6.9401-1.15-11.4401-7.21-14.6901-12.9301
		c-5.1-9.79-8.3099-20.6-9.25-31.6c1.5801,3.21,3.3201,6.87,7.04,8.02c4.59,1.73,9.24-1.78,11.1899-5.79
		c3.0701-6.45,2.5601-14.92-2.2699-20.38c-2.77-3.21-8.03-4-11.3601-1.22c-3.25,2.16-4.1799,6.1-5.5199,9.51
		c-0.78-10.09,0.3999-20.3,3.11-30.04c2-6.11,4.99-12.77,11.0599-15.78c3.61-1.81,7.49-0.16,10.89,1.29
		c-3.12-3.67-7.1-7.4-12.1899-7.58c-4.91,0.0699-8.78,3.87-11.16,7.84c-5.14,8.53-6.58,18.65-7.62,28.39
		c-0.67,11.27-0.11,22.73,2.4,33.76c0.4299-6.05-1.3-12.05-0.41-18.08c0.3,0.13,0.9,0.41,1.2,0.55
		c0.61,6.12,0.6001,12.29,1.17,18.43c0.6801,3.14-1.55,5.79-1.51,8.91c-1.47-1.29-1.3199-3.44-1.88-5.15
		c-4.65-20.74-5.62-43,1.09-63.39c2.62-7.69,7.5701-16.59,16.67-17.21c-16.08-11.07-35.79-15.2-55.01-16.27
		c-24.67-1.8-49.41-0.11-74,2.01c-17.1,1.41-34.08,3.94-51.05,6.48c-2.11,0.62-3.96-0.75-5.2699-2.22
		C1443.9399,542.56,1466.47,541.05,1488.9301,539.19z"/>
	<path d="M1540,548.97c9.54-0.55,19.45-2.03,28.6801,1.33c3.73,1.31,8.5399,3.31,9.0199,7.82c-0.5,3.88-2.5599,7.34-4,10.91
		c-9.1699-2.15-17.83-6.13-26.9399-8.4301c-39.92-1.37-79.86-2.68-119.78-4.08c25.25-2.36,50.62-3.22,75.92-5.13
		C1515.26,550.57,1527.63,549.75,1540,548.97z"/>
	<path d="M1094.71,553.87c9.4601-0.61,18.91-1.93,28.41-1.79c-8.63,5.13-17.4301,10.36-24.41,17.67
		c-3.12,3.17-4.35,7.65-3.9399,12.02c-27.24-1.35-54.52,0.23-81.75,0.84c-31.68,1.08-63.35,2.5-95,4.26
		c-31.35,1.96-62.83,2.54-93.98,6.86c-35.8,4.69-71.2599,11.59-106.64,18.73c-36.32,7.56-72.52,15.71-108.6,24.36
		c-4.28,0.99-8.46,2.43-12.82,3.01c4.17-2.1,8.74-3.25,13.15-4.72c40.85-13.35,82.27-24.93,124.12-34.67
		c38.43-8.85,77.24-16.22,116.43-20.72c12.4-1.6,24.89-2.41,37.32-3.73C956.23,568.54,1025.4,560.58,1094.71,553.87z"/>
	<path d="M663.27,560.24C663.83,560.8,663.83,560.8,663.27,560.24z"/>
	<path d="M406.29,612.31C409.63,612.47,404.56,615.27,406.29,612.31z"/>
	<path d="M1405.65,617.81c0.47,0.15,1.41,0.46,1.89,0.61c6.46,17.95,9.0699,36.94,13.2899,55.47
		c-1.6599,0.3-3.2999,0.59-4.9299,0.88c-2.35-11.7-4.28-23.49-5.6-35.35C1409.4,632.08,1407.01,625.05,1405.65,617.81z"/>
	<path d="M795.98,635.93c37.96-2.71,76.23-1.78,113.93,3.55c14.41,2,28.98,3.9,42.73,8.89c18.56,6.96,35.68,17.67,50.46,30.8
		c-4.3199-1.95-8.12-4.9-12.5-6.73c-3.87-2.1-8.73-1.66-11.87-5.09c-17.94-10.41-37.91-17.14-58.27-20.93
		c-39.46-6.58-79.65-8.92-119.6-6.7c-34.75,1.98-69.33,7.94-102.53,18.48c-37.39,11.75-73.61,28.38-104.97,52.11
		c-27.97,21.02-51.73,47.78-68.52,78.51c-11.13,20.33-17.72,42.99-20.06,66.02c-3.52,34.49,2.65,68.91,8.5,102.78
		c1.98,12.85,8.86,24.29,16.6,34.49c10.7,13.86,23.61,25.85,37.12,36.9401c16.68,13.6699,34.57,25.8099,52.98,37.0299
		c-7.21-2.2-13.63-6.33-20.33-9.6799c-16.37-9.1-31.87-19.79-46.01-32.0701c-14.03-12.4-27.06-26.17-36.91-42.17
		c-7.25-3.36-15.05-5.42-22.44-8.47c-18.02-6.72-36.13-13.31-53.58-21.43c-5.82-2.56-11.05-7.53-17.7-7.39
		c-7.64,1.68-14.27,6.52-22.05,7.81c-10.55,1.99-21.35-1.02-30.69-5.89c-2.49-1.4-5.18-2.78-6.78-5.24
		c-7.02-10.2-12.99-21.07-19.54-31.53c3.59,14.48,13.69,26.01,19.21,39.67c-11.26,3.67-22.66,6.93-33.92,10.61
		c-2.96,1.08-6,2.6-9.25,2.02c-6.75-1.08-11.93-6.15-16.08-11.23c-9.48-12.01-15.39-26.34-20.35-40.6801
		c-7.37-22.77-11.79-46.52-12.87-70.43c-0.18-11.16-0.58-22.51,1.55-33.5c0.43-0.11,1.27-0.34,1.69-0.45
		c-0.04,2.39-0.42,4.75-0.71,7.1299c-2.76,23.07,0.06,46.41,4.45,69.09c4.58,20.78,10.83,41.63,22.38,59.7
		c4.52,6.66,10.01,13.69,18.09,16c6.5,1.76,12.39-3.21,15.33-8.56c6.63-11.99,7.87-26,8.59-39.42c0.51-4.54-2.25-8.41-3.56-12.54
		c-1.85-4.35-2.48-9.07-4.06-13.49c0.31,9.05,0.57,18.12-0.24,27.16c-0.59,2.16,1.47,3.95,0.94,6.08
		c-1.47,6.48-1.7,13.61-5.81,19.15c-2.86,4.21-5.63,9.93-11.4,10.34c-6.38,0.03-10.98-5.39-14.49-10.08
		c-9.84-14.29-15.03-31.15-19.1-47.85c-5.14-22.18-7.49-45.09-6.13-67.85c0.69-7.85,1.91-15.71,4.46-23.18
		c0.56-0.14,1.68-0.4,2.24-0.54c-6.55,18.15-6.37,37.88-4.83,56.86c2.12,21.8,6.5,43.5699,14.96,63.85
		c3.65,8.15,7.76,16.56,14.76,22.37c3.73,3.31,9.91,3.75,13.46-0.06c-4.95-3.18-8.59-7.98-11.33-13.11
		c4.1,3.86,7.57,8.75,13.19,10.53c2.79-3.59,4.04-8.04,5.15-12.36c3.23-13.15,3.29-26.81,2.67-40.25
		c-0.22-10.75-2.17-21.36-3.96-31.93c-1.78-10.26-4.44-20.37-7.85-30.2c-5.01-11.92-9.45-24.12-12.21-36.77
		c-0.88-4.71-2.47-9.69-0.87-14.42c2.54,1.34,3.51,4.15,4.69,6.59c3.93,8.88,6.66,18.24,9.42,27.53
		c2.86,11.28,6.28,22.55,7.11,34.21c-0.79,10.84,3.37,21.14,6.38,31.36c6.69,19.93,13.9,39.94,25.08,57.87
		c5.74,9.11,13.56,18.11,24.59,20.43c10.35,2.53,20.47-2.16,29.43-6.86c5.36-2.43,12.04-6,17.62-2.19
		c7.51,5.39,16.03,9.06,24.44,12.78c18.53,7.89,37.32,15.19,56.38,21.71c-6.53-15.19-7.62-31.83-10.16-47.97
		c-24.41-5.37-48.95-10.87-72.32-19.93c-5.17-2.19-10.53-4.47-14.59-8.47c-0.54-1.8,1.67-2,2.78-2.56
		c5.81,4.72,12.82,7.57,19.71,10.3c20.79,7.69,42.32,13.24,63.94,18.05c-1.44-9.14-3.75-18.16-4.3-27.44
		c-3.36-36.4301,4.71-73.39,20.72-106.1201c13.73-29.29,35.53-54.1299,60.08-74.89c32.88-27.58,71.77-47.52,112.61-60.37
		C725.52,645.09,760.65,638.8,795.98,635.93z"/>
	<path d="M378.26,657.25c3.7-3.13,7.26-6.74,11.97-8.28c-1.09,3.85-3.92,6.82-6.44,9.8c-6.32,7.04-13.63,13.35-18.43,21.61
		c-5.57,9.45-11.36,18.78-16.83,28.29c-16.83-0.98-34.38-0.2-49.99,6.77c-9.71,4.27-18.39,11.84-22.24,21.91
		c-2.03,5.55-3.57,11.28-4.86,17.06c-5.44,25.81-7.82,52.23-7.8,78.59c-1.4-6.56-1.28-13.32-1.56-19.99
		c-0.27-21.7-0.45-43.66,4.01-65c2.3-11.7,10.05-21.41,18.85-29.07c7.02-5.94,15.38-10.27,24.28-12.63
		c11.67-3.15,23.85-1.17,35.76-1.89C354.64,687.81,363.48,670.01,378.26,657.25z"/>
	<path d="M827.04,656.86c14.06-0.7,28.07-2.25,42.13-2.93c-9.02,5.07-17.77,10.78-25.11,18.13c-5.12,5.02-9.81,10.48-15.23,15.18
		c-3.72-0.37-7.09-2.61-10.79-3.32c-15.05-3.68-30.6-4.71-46-5.92c-33.74-2.78-68.12,2.04-99.7,14.29
		c-29.56,11.37-56.55,28.86-80.09,49.95c-10.24,9.08-19.72,18.97-29.13,28.9c-1.16,1.3-2.6,2.31-4.19,3.02
		c0-4.3199,2.48-8.03,4.64-11.5699c10.09-15.54,23.55-28.6,37.95-40.1201c40.48-32.03,90.29-50.54,140.89-58.81
		c16.5-2.3,32.95-5.24,49.58-6.39C803.65,658.34,815.38,657.73,827.04,656.86z"/>
	<path d="M921.71,677.77c7.41-4.6,15.49-8.8,24.31-9.61c-11.39,2.76-22.11,8.26-30.99,15.94c-1.76,1.51-3.45,3.13-5.48,4.29
		C912.54,683.84,917.39,680.94,921.71,677.77z"/>
	<path d="M384.34,683.38c1.07-3.38,2-7.01,4.51-9.65c-3.18,14.6-5.67,29.34-7.4,44.18C381.32,706.37,381.2,694.59,384.34,683.38z"/>
	<path d="M989.62,673.66c8.74,3.29,15.95,9.73,22.43,16.3c3.86,4.5099,8.08,8.99,10.42,14.52c-3.02-2.32-5.1299-5.54-7.67-8.32
		c-6.05-6.62-12.47-12.99-19.78-18.22C993.15,676.6,991.17,675.37,989.62,673.66z"/>
	<path d="M1394.37,686.12c12.03-3.61,24.46-5.72,36.61-8.89c3.65,2.89,6.79,6.38,10.63,9.05c0.15-0.8,0.46-2.41,0.61-3.21
		c8.64-2.28,18.17,1.07,24.2101,7.47c5.47,6.14,8.2699,14.2401,9.24,22.3c-9.92,5.08-19.9801,9.87-29.86,15
		c-4.6101,3.6-8.1801,8.53-13.28,11.53c-9.41,1.72-19.22,2.12-28.55-0.2c-15.7,1.68-31.13,5.65-46.86,7.19
		c-0.46-9.5-1.05-19.3,1.86-28.48c2.03-6.62,8.09-10.71,13.59-14.32c6.92-4.49,14.41-8,21.8501-11.54
		C1394.42,690.04,1394.39,688.08,1394.37,686.12 M1404.74,697.84c0.49,9.3,1.01,18.64,2.62,27.83c0.4301,3.48,1.99,7.01,5.26,8.69
		c5.72,2.98,12.85,3.28,18.91,1.24c4.99-3.73,10.33-8.83,10.2899-15.56c0.03-10.29,0.28-20.61-0.6399-30.87
		C1429.0699,692.22,1416.8,694.63,1404.74,697.84z"/>
	<path d="M952.38,682.56c20.42-4.15,42.22,3.65,56.34,18.73c26.73,27.27,28.9,74.06,5.9301,104.31
		c-11.7,15.89-30.69,26.77-50.65,26.7c-18.54,0.23-36.45-8.95-48.31-22.98c-15.63-18.25-21.66-43.7-17.45-67.21
		c3.03-17.89,12.33-34.9,26.47-46.4C932.69,689.18,942.27,684.6,952.38,682.56 M957.45,688.66c-9.01,1.13-17.78,4.4-25.23,9.6
		c-13.62,9.23-22.9399,23.95-27.02,39.76c-3.96,16.4-2.83,34.2,4.17,49.63c6.97,15.94,20.3,29.45,36.99,34.96
		c15.57,5.53,33.45,2.91,47.24-6c15.22-9.72,25.63-26.12,29.19-43.71c4.7601-21.7401-0.44-45.72-14.75-62.91
		C995.99,695.23,976.59,686.23,957.45,688.66z"/>
	<path d="M897.32,703.17c3.47-5.22,6.85-10.92,12.09-14.54c-1.67,2.86-4.16,5.09-6.14,7.73c-10.64,13.67-17.23,30.39-18.95,47.62
		C884.95,729.58,889.81,715.44,897.32,703.17z"/>
	<path d="M968.96,708.9c13.42,3.69,25.07,13.35,31.35,25.77c5.19,10.24,6.53,22.03,5.74,33.37c-0.67,8.53-3.35,17.31-9.45,23.56
		c-7.09,7.62-17.93,10.5-28.06,10.27c4.52-7.09,9.52-14.03,12.29-22.08c5.18-12.92,5.92-27.28,3.56-40.9
		C982.39,727.64,977.3,716.83,968.96,708.9z"/>
	<path d="M933.39,713.49c8.23-2.16,17.09,1.28,22.84,7.28c13.96,14.83,15.54,38.85,6.02,56.45c-3.5,6.2401-8.75,11.82-15.53,14.44
		c-7.3,2.82-15.99,1.55-22.15-3.27c-8.34-6.2-13.15-16.22-14.79-26.3c-1.8701-11.91-0.27-24.7401,6.2599-35.06
		C919.96,720.68,925.98,715.27,933.39,713.49 M931.38,726.48c-4.08,1.47-7.34,4.67-9.58,8.3c-6.15,10.1-5.86,23.8199,0.86,33.5699
		c3.01,4.35,7.88,7.78,13.33,7.83c6.3,0.36,11.94-3.86,15.11-9.03c6.6-10.86,5.92-26.05-2.47-35.77
		C944.53,726.49,937.44,724.21,931.38,726.48z"/>
	<path d="M1584.8199,718.9c8-1.54,16.63-1.14,24.17,2.15c6.75,3.12,10.14,10.43,11.66,17.33c1.91,8.47,3.8099,16.99,4.53,25.66
		c-0.0701,1.3,0.58,3.52-1.3101,3.83c-10.5599,3.47-21.15,7.01-31.21,11.79c-4.7101,2.34-9.91,4.6-13.11,8.95
		c-2.02,4.65-1.3401,9.89-0.37,14.71c-4-3.34-8.4301-7.57-8.79-13.06c1.0699-3.24,4.63-4.73,7.22-6.63
		c12.59-7.61,25.88-13.99,39.27-20.06c0.1899-5.2-1.37-10.24-2.17-15.32c-1.49-7.58-3.58-16.03-10.1499-20.84
		c-5.1101-3.73-11.8201-2.89-17.5701-1.45c-43.88,9.96-87.5,21.02-131.23,31.59c-44.91,11.22-89.91,22.09-134.79,33.44
		c-7.03,1.55-13.9199,3.76-21.02,4.9c8.55-3.11,17.4501-5.17,26.1801-7.75c64.91-18.35,129.8099-36.78,195.05-53.96
		C1542.3101,728.75,1563.39,723.04,1584.8199,718.9z"/>
	<path d="M1638.17,751.67c6.7899,3.13,13.37,8.73,14.96,16.36c1.1801,7.8-4.24,14.52-9.6,19.49
		c-13.91,12.59-29.79,22.76-45.61,32.75c-3.27-2.61-6.3501-5.45-9.3-8.4c6.79-4,13.8199-7.62,20.55-11.74
		c10.4099-6.33,21.24-12.36,29.86-21.12c4.1799-4.33,7.77-9.84,8.0499-16.02c0.17-3.76-2.86-6.53-5.7799-8.33
		C1640.2,753.73,1638.45,753.24,1638.17,751.67z"/>
	<path d="M1492.04,761.08c6.63-1.54,13-4.26,19.83-4.85c-20.02,5.9-39.76,12.79-59.76,18.79c-21.26,6.72-42.63,13.09-64.11,19.04
		c-43.45,12.46-86.45,26.42-129.35,40.64c-31.92,10.74-63.8301,21.54-95.28,33.59c-6.6,2.73-13.35,5.12-19.71,8.39
		c-10.05,5.11-18.2001,13.66-23.26,23.68c-2.11,3.56-2.6901,7.87-4.77,11.37c-7.02,1.38-14.09,2.54-21.1,3.97
		c5.36-16.17,14.87-31.21,27.72-42.47c6.1801-4.59,13.46-7.37,20.41-10.58c41.83-17.54,84.9-31.9,128.01-45.9
		c42.74-13.36,85.72-26.2,129.5699-35.45C1431.0601,775.59,1461.79,769.31,1492.04,761.08z"/>
	<path d="M1530.83,782.36c9.38,4.21,18.6801,8.68,27.78,13.49c-1.1899,4.67-2.22,9.39-3.23,14.11c-5.67-1.89-10.62-5.41-16.34-7.14
		c-1.77,4.94-3.36,9.95-5.11,14.9c-4.89-1.84-9.6001-4.1299-14.5801-5.6899c-1.6899,4.47-3.0399,9.08-5.14,13.3799
		c-5.0399-2.21-9.96-4.74-15.1699-6.53c-2.28,5.83-4.3401,11.76-6.86,17.49c-4.8301-2.66-9.53-5.52-14.25-8.33
		c-4.1801,6.34-7.77,13.04-11.9801,19.36c-4.5599-3.56-8.33-7.98-12.84-11.59c-4.51,6.71-8.96,13.46-13.46,20.18
		c-6.14-3.58-11.8201-7.87-17.8-11.69c-3.98,7.22-6.61,15.28-11.7999,21.77c-1.78,1.54-4.25-0.37-5.99-1.14
		c-4.65-2.65-8.6001-6.29-12.9701-9.34c-2.97,6.1-5.3199,12.6-9.58,17.97c-1.02,1.17-2.5,2.6-4.1901,2.03
		c-7.12-2.22-13.08-6.92-19.34-10.8c-3.9399,7.1-6.97,14.8-11.95,21.27c-1,1.5-2.79,0.36-3.99-0.14
		c-7.0701-3.61-13.3301-8.56-19.98-12.85c-4.16,6.96-7.4,14.43-10.63,21.86c-8.39-1.69-15.7301-6.6-23.6801-9.59
		c-1.27-0.3-2.46,0.43-3.63,0.72c-11.98,4.08-24.15,7.61-35.95,12.17c-4.26,2.1-9.11,1.93-13.62,3.08
		c-46.2101,9.89-92.28,20.44-138.4501,30.52c-0.46-2.79-0.75-5.61-0.9-8.43c20.55-4.11,41.1001-8.25,61.6001-12.6
		c19.58-4.5,39.4399-8.06,58.5399-14.4c13.1801-4.57,25.8-10.58,38.28-16.79c4.1801-1.77,8.04-4.47,12.49-5.53
		c7.1,0.59,14.05,2.37,21.13,3.28c0.38-5.7,0.1801-11.86,3.25-16.92c1.08-1.91,3.3101-3.02,5.5-2.56
		c5.8201,0.8,11.37,2.86,16.85,4.89c2.91-4.8,5.3-10.66,10.5801-13.31c6.3999-1.04,11.9299,3.19,17.5,5.63
		c5.46-6.52,10.4299-13.84,17.63-18.57c6.8199-2.52,13.2,2.29,18.84,5.52c0.61-4.61,2.71-9.52,7.1799-11.57
		c5.89-2.83,12.4401-0.56,18.4401,0.66c2.28-4.11,3.67-9.61,8.2-11.79c7.4-0.57,14.3201,2.92,21.26,5
		c-0.1599-3.73-1.12-7.77,0.62-11.27c1.2001-1.96,3.77-1.71,5.76-1.56c7.16,0.74,14.1,2.79,21.0801,4.45
		c0.25-3.6-0.78-8.21,2.24-10.87c5.76-0.69,11.5,0.85,17.1799,1.6299c1.5801-3.45,2.16-8.0699,5.6901-10.11
		c5.63-0.3,11.09,1.51,16.63,2.28c1.47-2.89,2.1699-6.85,5.34-8.37c7.02,0.24,13.63,3.73,20.71,3.35
		C1531.0699,791.15,1530.2,786.17,1530.83,782.36z"/>
	<path d="M606.42,819.45c21.13-5.48,43.05-0.93,64.02,3.02c4.57,0.16,8.34,3.98,13.09,2.77c1.3199,2.28,3.97,2.92,6.21,3.97
		c20.77,8.93,38.44,24.15,51.9,42.19c12.81,17.1,22.08,36.62,29.05,56.7599c12.61,38.86,24,78.13,37.42,116.73
		c6.95,19.4299,14.15,38.87,23.89,57.11c4.48,8.11,9.34,16.21,16.04,22.71c1.9-0.4299,3.82-0.72,5.78-0.59
		c-0.08,1.65-1.28,2.91-1.53,4.51c8.72,5.3199,18.85,7.5599,28.77,9.4301c20.81,3.22,41.92,4.1,62.96,3.86
		c51.15-1.02,102.22-7.54,151.9-19.8301c19.0299-4.62,37.6599-10.71,56.24-16.86c44.51-14.45,89.09-28.6899,133.45-43.62
		c35.55-12.2,71.04-24.6899,105.6801-39.31c40.59-17.5,80.02-37.64,118.2799-59.75c24.78-14.61,49.9501-29.17,71.16-48.82
		c4.91-4.02,8.74-9.2,13.74-13.09c-2.89,5.15-7.5599,8.99-11.35,13.45c-11.75,12.44-24.84,23.69-39.5,32.5699
		c-34.0599,20.96-69.41,39.75-105,57.96c-20.79,10.43-41.62,20.83-63.0599,29.86c-16.05,6.12-32.3301,11.63-48.4601,17.53
		c-42.3199,15.11-84.6699,30.15-127.11,44.9399c-22.42,7.67-44.77,15.55-67.42,22.53c-18.5399,5.24-37.45,8.97-56.34,12.7001
		c-47.33,8.5599-95.13,15.35-143.25,16.97c-15.69,0.38-31.48,0.23-47.03-2.17c-8.59-1.39-17.41-3.25-24.79-8.11
		c-4.45-3.05-8.49-6.65-12.34-10.4c-22.29,6.36-44.48,13.11-66.73,19.63c-8.33,2.73-17.01,4.49-25.15,7.8101
		c-8.02,4.4199-17.49,6.34-26.55,4.5399c-14.46-2.72-26.94-11.45-37.46-21.36c-15.07-14.39-26.98-31.74-37.25-49.7799
		c-19.52-34.8701-32.98-72.9001-42.15-111.73c-11.48-49.39-16.46-100.88-9.04-151.27c-6.02,2.2-11.5,5.71-16.38,9.83
		c-3.75,3.29-7.72,6.69-9.54,11.49c-5.78,13.65-6.66,28.74-6.92,43.37c-0.21,29,4.63,57.79,11.28,85.93
		c6.83,29.95,18.52,59.06,36.35,84.19c-5.47-3.5699-9.48-8.91-13.3101-14.09c-13.39-19.04-20.61-41.59-25.79-64.0601
		c-5.06-24.77-10.53-49.5099-13.45-74.65c-1.82-18.51-3.15-37.81,2.86-55.73C575.07,836.13,589.68,823.5,606.42,819.45
		 M627.21,821.25c-11.59,20-14.59,43.61-15.79,66.32c-1.22,31.88,2.88,63.8,10.28,94.77c8.87,35.64,21.92,70.7599,42.73,101.2499
		c9.64,13.73,21.02,27.0601,36.2,34.79c9.35,4.96,21.22,6.04,30.75,0.99c7.28-3.75,12.75-10.1899,16.88-17.13
		c8.86-15.25,12.56-32.89,14.54-50.24c-2.21,5.4-2.48,11.42-5.07,16.6899c-3.47,7.5701-9.19,14.6201-17.14,17.6801
		c-7.16,2.04-13.78-2.61-19.15-6.77c-6.47-5.53-12.56-11.6899-17.29-18.78c8.47,7.03,16.84,14.5601,27.06,19.01
		c3.83,1.62,8.21,2.7201,12.32,1.61c3.75-1.8099,5.92-5.6,7.9399-9.0499c6.07-11.76,9.19-24.72,12.52-37.4401
		c0.77-13.54,0-27.14-1.22-40.64c-4.68-44.49-16.18-88.62-36.49-128.61c3.7599,2.85,7.74,6,9.4399,10.58
		c18.57,42.53,29.33,88.42,32.08,134.73c1,22.9399,0.25,46.1899-5.1,68.61c-3.94,15.39-9.75,31.34-21.9,42.2
		c-7.78,7.1001-18.99,9.92-29.22,7.4701c-13.22-3.05-24.11-11.98-33.29-21.5601c-14.41-15.04-24.68-33.34-34.31-51.62
		c1.97,5.1801,4.58,10.09,7.01,15.0701c9.62,18.5599,20.61,36.62,34.68,52.1799c9.17,10.04,19.68,19.28,32.28,24.75
		c9.56,4.21,20.82,5.21,30.69,1.48c9-3.52,16.3-10.4299,21.67-18.33c8.79-12.8,13.5-27.86,16.95-42.86
		c4.68-23.5601,6.28-47.75,4.88-71.71c-3.74-12.63-7.55-25.25-10.93-37.98c-9.75-34.61-20.07-70.05-41.14-99.73
		c-15.82-22.67-38.76-40.4-64.96-49.37c-11.56,7.46-16.25,21.15-19.46,33.83c-2.94,13.33-4.64,26.94-5.05,40.59
		c-0.28,3.66,0.02,7.4-0.86,11c-0.78-10-0.56-20.03-0.48-30.04c0.11-8.79,1.5-17.52,3.76-26c2.86-11.41,7.79-22.47,15.6-31.37
		C655.39,822.95,641.25,820.63,627.21,821.25 M610.44,824.27c-4.46,23.26-5.63,47.09-4.42,70.72c0.19,7.41,0.3,14.89,1.67,22.19
		c0.21-6.06,0.03-12.13-0.14-18.19c-0.46-26.11,2.45-52.74,12.5-77.03C616.78,822.4,613.52,823.06,610.44,824.27 M797.38,1032.92
		c0.12,10.39-0.31,20.7699-1.11,31.12c0.75,8.36,2.26,16.74,4.99,24.7c2.64,7.38,9.37,11.98,14.73,17.28
		c7.86,7.15,16.08,13.88,24.23,20.6899c1.83-0.39,3.64-0.8999,5.47-1.37C822.34,1098.96,809.19,1065.62,797.38,1032.92z"/>
	<path d="M1611.39,817.82c2.6,6.7,2.96,14.14,2.51,21.25c-0.51,9.13-4.74,18.09-11.9401,23.82c-14.21,11.82-29.86,21.73-45.38,31.7
		c-26.5499,16.55-53.39,32.79-81.63,46.34c-19.74,8.46-40.08,15.43-60.2899,22.71c-43.3,15.12-87,29.13-131.0601,41.89
		c-53.88,15.37-108.2999,29.28-163.66,38.2c-17.8099,2.1801-35.5399-4.6-49.9299-14.73c-8.02-5.85-15.6901-12.81-20.14-21.83
		c-2.59-4.82-1.92-11.32,2.41-14.91c5.4099-4.47,12.95-4.59,19.63-4.26c2.87,14.32,9.38,28.81,21.6599,37.4399
		c9.63,6.8201,21.92,8.8201,33.4901,7.55c21.1899-2.2,42.0399-6.71,62.86-11.12c46.36-10.42,92.2999-22.65,137.86-36.12
		c43.7999-13.09,87.34-27.19,129.83-44.09c35.61-14.53,70.67-30.95,102.78-52.2599c14.09-9.59,27.83-20.03,39.1-32.92
		c3.33-4.08,6.8-8.28,8.54-13.33C1610.48,834.93,1610.89,826.32,1611.39,817.82z"/>
	<path d="M301.44,827.41c1.48-0.64,3.42-0.64,4.67,0.52c2.96,2.48,4.79,6.04,6.04,9.64c1.08,3.76,3.95,6.74,4.57,10.67
		c1.29,3.94,0.08,8.04,0.61,12.06c0.73,6.05,0.48,12.18-0.1,18.23c-0.72,3.21-1.89,7.16-5.39,8.29c-3.24-0.32-5.28-3.23-6.79-5.81
		c-6.56-12.18-8.19-26.39-7.86-40.03C297.51,836.31,297.72,830.77,301.44,827.41 M299.98,831.11c-3.02,6.19-2.12,13.29-2.22,19.95
		c0.96,10.08,2.47,20.5,7.77,29.35c1.34,2.04,2.92,4.41,5.55,4.79c2.99,0.16,4.2-3.18,5.05-5.47c1.23-5.77,1.34-11.71,1.09-17.58
		c-1.06,0.37-2.12,0.71-3.2,1c-1.72-2.17-3.06-4.66-3.61-7.38c-1.34-5.8-2.52-12.58,1.43-17.65c-1.39-3.59-3.4-7.26-6.72-9.38
		C303.09,827.22,300.8,829.24,299.98,831.11z"/>
	<path d="M1428.89,931.92c37.39-15.07,74.12-31.83,110.14-49.91c-15.73,12.53-32.35,24.04-49.61,34.4
		c-8.5601,5-17.38,9.6201-26.5801,13.33c-9.48,3.59-19.3199,6.04-28.9299,9.19C1382.1,955.37,1330.97,973.88,1280.08,992.98
		c-20.4299,6.87-41.24,12.57-62.09,18.02c-26.04,6.49-52.21,12.86-78.92,15.95c-6.21,0.5-12.61,1.2001-18.74-0.3099
		c-12.7999-4.16-22.6499-14.85-28.08-26.91c-1.28-3-2.84-6.84-0.33-9.65c8.35,3.9,18.25,5.23,24.96,12.05
		c3.66,3.31,6.3199,7.74,10.5699,10.38c19.28,4.56,39.25,0.8,58.14-3.9c43.39-11.12,85.9601-25.15,128.75-38.33
		c22.51-7.13,45.05-14.17,67.55-21.34C1397.89,944.23,1413.46,938.21,1428.89,931.92z"/>
	<path d="M666.87,907.82c2.46-4.94,7.25-9.47,13.14-9.06c7.67,0.58,13.48,6.49,18.03,12.17c2.88,4.04,6.1,8.1,7.8,12.8
		c-1.83,1.5-4.88,0.67-6.42,2.72c-2.01,2.35-3.08,5.45-3.1,8.55c-0.12,6.05-0.52,12.26,1.32,18.13c2.03,6.69,4.31,13.77,9.62,18.64
		c1.87,1.77,4.74,3.18,7.25,1.85c2.08-1.48,3.13-3.9,4.65-5.86c2.58,10.66,2.17,21.94,0.45,32.73c-1.27,6.99-3.4,14.37-8.73,19.4
		c-4.01,3.86-10.47,4-15.16,1.32c-7.33-4.09-12.47-11.07-16.81-18.06c-10.89-18.81-16.4-40.46-17.56-62.07
		C661,929.82,661.84,918.09,666.87,907.82 M673,904.02c-6.13,4.98-8.01,13.16-9.29,20.59c-2.92,22.94,1.83,46.49,11.06,67.55
		c3.99,8.48,8.77,16.9,15.93,23.14c4.04,3.46,9.62,6.17,15,4.4c5.79-1.98,8.73-7.96,10.68-13.32c3.68-11.44,3.21-23.67,2.33-35.5
		c-2.01,2.2-4.43,5.76-7.9,4.28c-6.38-2.8199-9.45-9.7599-11.78-15.91c-3.42-8.48-4.2-17.76-3.27-26.79
		c0.66-4.38,3.29-9.1,8.18-9.4901c-4.07-7.47-9.22-14.77-16.61-19.27C683.04,901,677.04,900.68,673,904.02z"/>
	<path d="M705.68,925.51c2.98-0.37,4.57,2.6,6.15,4.63c5.4,8.92,8.43,19.41,7.91,29.88c-0.24,2.35,0.36,5.08-1.39,7
		c-1.98-9.75-3.98-19.55-7.5-28.89C709.3,933.85,707.21,929.79,705.68,925.51 M708.71,928.25c3.44,9.49,7.23,18.95,9.05,28.95
		c0.33,1.37,0.24,3.02,1.33,4.12c0.61-8.68-1.16-17.47-4.9301-25.3C712.74,933.2,711.51,929.99,708.71,928.25z"/>
	<path d="M828.34,1032.0601c3.3,15.33,9.03,30.1699,16.89,43.74c9.29,15.87,22.83,30.1,40.37,36.6
		c10.56,4.4,22.21,3.7899,33.39,4.74c49.18,1.63,98.55-0.61,147.27-7.59c22.67-3.25,44.97-8.5601,67.16-14.1101
		c57.4299-14.2999,114.0199-31.8999,169.5499-52.34c3.9301-1.51,7.8401-3.1799,12-3.98c-37.5499,15.13-75.77,28.65-114.12,41.67
		c-42.12,13.99-84.5599,27.08-127.47,38.4399c-23.67,6.11-47.84,10.42-72.26,11.9501c-12.04,0.8099-24.12,0.95-36.15,1.97
		c-12.67,0.72-25.39,1.83-38.06,0.61c-12.22-0.91-24.16-3.86-36.0099-6.83c-18.54-5.39-33.22-19.4-43.75-35.1101
		c-5.83-9.0099-11.27-18.5599-13.85-29.0499C832.03,1052.47,828.92,1042.4399,828.34,1032.0601z"/>
</g>
</svg>
